<?xml version="1.0" encoding="utf-8"?>
<!-- Generator: Adobe Illustrator 26.0.1, SVG Export Plug-In . SVG Version: 6.00 Build 0)  -->
<svg version="1.1" id="Layer_1" xmlns="http://www.w3.org/2000/svg" xmlns:xlink="http://www.w3.org/1999/xlink" x="0px" y="0px"
	 viewBox="0 0 60 60" style="enable-background:new 0 0 60 60;" xml:space="preserve">
<style type="text/css">
	.st0{fill:#FFFFFF;}
</style>
<path class="st0" d="M56.5,25.2c-5.6,0-11-1.8-15.1-4.9l0,20.8c0,10.4-8.5,18.9-18.9,18.9C12,60,3.5,51.5,3.5,41.1
	c0-10.4,8.5-18.9,18.9-18.9c0.8,0,1.7,0.1,2.5,0.2v10.2c-4.7-1.4-9.7,1.3-11.1,6c-1.4,4.7,1.3,9.7,6,11.1c4.7,1.4,9.7-1.3,11.1-6
	c0.2-0.8,0.4-1.7,0.4-2.5V0h10.5c0,8.1,6.6,14.7,14.7,14.7c0,0,0,0,0,0L56.5,25.2z"/>
</svg>
